<mxfile host="Electron" agent="Mozilla/5.0 (Macintosh; Intel Mac OS X 10_15_7) AppleWebKit/537.36 (KHTML, like Gecko) draw.io/27.0.9 Chrome/134.0.6998.205 Electron/35.4.0 Safari/537.36" version="27.0.9" pages="1">
  <diagram id="AsHtNMLsNTLCxXA9mggR" name="TicketMaster">
    <mxGraphModel dx="2305" dy="1134" grid="1" gridSize="10" guides="1" tooltips="1" connect="1" arrows="1" fold="1" page="1" pageScale="1" pageWidth="850" pageHeight="1100" math="0" shadow="0">
      <root>
        <mxCell id="0" />
        <mxCell id="1" parent="0" />
        <mxCell id="TuEia0F1BFCH1UdOG985-1" value="Client" style="ellipse;shape=cloud;whiteSpace=wrap;html=1;" vertex="1" parent="1">
          <mxGeometry x="120" y="289.86" width="120" height="80" as="geometry" />
        </mxCell>
        <mxCell id="TuEia0F1BFCH1UdOG985-2" value="Load Balancer" style="whiteSpace=wrap;html=1;aspect=fixed;" vertex="1" parent="1">
          <mxGeometry x="340" y="289.86" width="80" height="80" as="geometry" />
        </mxCell>
        <mxCell id="TuEia0F1BFCH1UdOG985-3" value="API Server" style="whiteSpace=wrap;html=1;aspect=fixed;" vertex="1" parent="1">
          <mxGeometry x="520" y="289.86" width="80" height="80" as="geometry" />
        </mxCell>
        <mxCell id="TuEia0F1BFCH1UdOG985-4" value="Ticket Service" style="whiteSpace=wrap;html=1;aspect=fixed;" vertex="1" parent="1">
          <mxGeometry x="520" y="409.86" width="80" height="80" as="geometry" />
        </mxCell>
        <mxCell id="TuEia0F1BFCH1UdOG985-5" value="Payment Service" style="whiteSpace=wrap;html=1;aspect=fixed;" vertex="1" parent="1">
          <mxGeometry x="340" y="409.86" width="80" height="80" as="geometry" />
        </mxCell>
        <mxCell id="TuEia0F1BFCH1UdOG985-6" value="Database" style="shape=cylinder3;whiteSpace=wrap;html=1;boundedLbl=1;backgroundOutline=1;size=15;" vertex="1" parent="1">
          <mxGeometry x="520" y="529.86" width="80" height="120" as="geometry" />
        </mxCell>
        <mxCell id="TuEia0F1BFCH1UdOG985-7" style="edgeStyle=orthogonalEdgeStyle;rounded=0;orthogonalLoop=1;jettySize=auto;html=1;" edge="1" parent="1" source="TuEia0F1BFCH1UdOG985-1" target="TuEia0F1BFCH1UdOG985-2">
          <mxGeometry relative="1" as="geometry" />
        </mxCell>
        <mxCell id="TuEia0F1BFCH1UdOG985-8" style="edgeStyle=orthogonalEdgeStyle;rounded=0;orthogonalLoop=1;jettySize=auto;html=1;" edge="1" parent="1" source="TuEia0F1BFCH1UdOG985-2" target="TuEia0F1BFCH1UdOG985-3">
          <mxGeometry relative="1" as="geometry" />
        </mxCell>
        <mxCell id="TuEia0F1BFCH1UdOG985-9" style="edgeStyle=orthogonalEdgeStyle;rounded=0;orthogonalLoop=1;jettySize=auto;html=1;" edge="1" parent="1" source="TuEia0F1BFCH1UdOG985-3" target="TuEia0F1BFCH1UdOG985-4">
          <mxGeometry relative="1" as="geometry" />
        </mxCell>
        <mxCell id="TuEia0F1BFCH1UdOG985-10" style="edgeStyle=orthogonalEdgeStyle;rounded=0;orthogonalLoop=1;jettySize=auto;html=1;" edge="1" parent="1" source="TuEia0F1BFCH1UdOG985-3" target="TuEia0F1BFCH1UdOG985-5">
          <mxGeometry relative="1" as="geometry" />
        </mxCell>
        <mxCell id="TuEia0F1BFCH1UdOG985-11" style="edgeStyle=orthogonalEdgeStyle;rounded=0;orthogonalLoop=1;jettySize=auto;html=1;" edge="1" parent="1" source="TuEia0F1BFCH1UdOG985-4" target="TuEia0F1BFCH1UdOG985-6">
          <mxGeometry relative="1" as="geometry" />
        </mxCell>
      </root>
    </mxGraphModel>
  </diagram>
</mxfile> 